<svg xmlns="http://www.w3.org/2000/svg" xmlns:xlink="http://www.w3.org/1999/xlink" xmlns:lucid="lucid" width="141" height="159"><g transform="translate(-392 -345)" lucid:page-tab-id="0_0"><path d="M520 371.1c0 5.96-4.83 10.8-10.8 10.8-5.94 0-10.77-4.84-10.77-10.8 0-5.95 4.83-10.78 10.78-10.78 5.97 0 10.8 4.83 10.8 10.8z" stroke="#000" stroke-width="3" fill="#fff"/><path d="M509.2 384.9v49.34" stroke="#000" stroke-width="3" fill="none"/><path d="M509.2 383.4l1.5-.2v1.74h-3v-1.73zM510.7 436l-1.44-.26-1.55.18v-1.7h3z" stroke="#000" stroke-width=".05"/><path d="M518.56 446.6c0 5.16-4.18 9.34-9.34 9.34-5.17 0-9.35-4.18-9.35-9.34s4.2-9.35 9.34-9.35c5.18 0 9.36 4.2 9.36 9.35zM520 478.95c0 5.96-4.83 10.8-10.8 10.8-5.94 0-10.77-4.84-10.77-10.8 0-5.95 4.83-10.78 10.78-10.78 5.97 0 10.8 4.83 10.8 10.78z" stroke="#000" stroke-width="3" fill="#fff"/><path d="M498.43 442.54a6 6 0 0 1 6-6H514a6 6 0 0 1 6 6v9.57a6 6 0 0 1-6 6h-9.57a6 6 0 0 1-6-6z" fill="none"/><use xlink:href="#a" transform="matrix(1,0,0,1,498.43059322635435,436.54099005727346) translate(4.518518518518524 17.777777777777764)"/><path d="M509.2 458.95v6.2" stroke="#000" stroke-width="3" fill="none"/><path d="M509.17 457.46l1.54-.18v1.7h-3v-1.78zM510.7 466.85l-1.5-.2-1.5.2v-1.73h3z" stroke="#000" stroke-width=".05"/><path d="M423 424.74c0 5.96-4.84 10.8-10.8 10.8-5.95 0-10.78-4.84-10.78-10.8 0-5.95 4.83-10.78 10.8-10.78 5.94 0 10.77 4.83 10.77 10.78z" stroke="#000" stroke-width="3" fill="#fff"/><path d="M459.3 404.96v19.84a.23.23 0 0 1-.24.23.23.23 0 0 0-.23.23v19.84M459.3 405v-1.54M458.83 445.06v1.54" stroke="#000" stroke-width="3" fill="none"/><path d="M470.02 424.7c0 5.96-4.83 10.8-10.8 10.8-5.94 0-10.77-4.84-10.77-10.8 0-5.95 4.83-10.78 10.78-10.78 5.96 0 10.8 4.83 10.8 10.8z" stroke="#000" stroke-width="3" fill="#fff"/><path d="M460.33 403.46h23.7v.02h23.7M460.37 403.46h-1.54M507.68 403.48h1.53M412.2 410.95v-1.5a6 6 0 0 1 6-6h39.13" stroke="#000" stroke-width="3" fill="none"/><path d="M413.7 412.64l-1.5-.2-1.5.2v-1.73h3z" stroke="#000" stroke-width=".05"/><path d="M457.3 403.46h1.53M460.33 446.6h36.53M460.37 446.6h-1.54" stroke="#000" stroke-width="3" fill="none"/><path d="M498.36 446.56l.18 1.54h-1.72v-3h1.8z" stroke="#000" stroke-width=".05"/><path d="M412.24 438.54v2.06a6 6 0 0 0 6 6h39.1" stroke="#000" stroke-width="3" fill="none"/><path d="M413.74 438.58h-3v-1.73l1.47.2 1.54-.2z" stroke="#000" stroke-width=".05"/><path d="M457.3 446.6h1.53" stroke="#000" stroke-width="3" fill="none"/><defs><path fill="#3a414a" d="M118-107v75H92v-75H18v-26h74v-75h26v75h74v26h-74" id="b"/><use transform="matrix(0.06172839506172834,0,0,0.06172839506172834,0,0)" xlink:href="#b" id="a"/></defs></g></svg>