<svg xmlns="http://www.w3.org/2000/svg" xmlns:xlink="http://www.w3.org/1999/xlink" xmlns:lucid="lucid" width="143" height="157"><g transform="translate(-205 -548)" lucid:page-tab-id="0_0"><path d="M332.96 572.1c0 5.95-4.83 10.78-10.8 10.78-5.94 0-10.77-4.83-10.77-10.78 0-5.96 4.82-10.8 10.77-10.8 5.96 0 10.8 4.84 10.8 10.8z" stroke="#000" stroke-width="3" fill="#fff"/><path d="M322.17 585.9v49.34" stroke="#000" stroke-width="3" fill="none"/><path d="M322.17 584.4l1.5-.2v1.73h-3v-1.73zM323.67 637l-1.46-.27-1.53.18v-1.7h3z" stroke="#000" stroke-width=".05"/><path d="M331.52 647.6c0 5.15-4.2 9.34-9.35 9.34-5.16 0-9.34-4.2-9.34-9.35 0-5.17 4.18-9.35 9.34-9.35s9.35 4.18 9.35 9.34zM332.96 679.95c0 5.95-4.83 10.78-10.8 10.78-5.94 0-10.77-4.83-10.77-10.78 0-5.96 4.82-10.8 10.77-10.8 5.96 0 10.8 4.84 10.8 10.8z" stroke="#000" stroke-width="3" fill="#fff"/><path d="M311.4 643.53a6 6 0 0 1 6-6h9.56a6 6 0 0 1 6 6v9.58a6 6 0 0 1-6 6h-9.57a6 6 0 0 1-6-6z" fill="none"/><use xlink:href="#a" transform="matrix(1,0,0,1,311.38855527746915,637.535168418046) translate(4.518518518518524 17.777777777777764)"/><path d="M322.17 659.95v6.2" stroke="#000" stroke-width="3" fill="none"/><path d="M322.13 658.45l1.54-.18v1.7h-3v-1.77zM323.67 667.85l-1.5-.2-1.5.2v-1.74h3z" stroke="#000" stroke-width=".05"/><path d="M235.95 625.74c0 5.96-4.83 10.78-10.8 10.78-5.94 0-10.77-4.82-10.77-10.78 0-5.96 4.83-10.8 10.78-10.8 5.96 0 10.8 4.84 10.8 10.8z" stroke="#bbbec2" stroke-width="3" fill="#fff"/><path d="M272.25 605.95v19.84a.23.23 0 0 1-.23.22.23.23 0 0 0-.23.23v19.84M272.25 606v-1.55M271.8 646.05v1.54" stroke="#000" stroke-width="3" fill="none"/><path d="M282.98 625.7c0 5.96-4.83 10.8-10.8 10.8-5.94 0-10.77-4.84-10.77-10.8 0-5.95 4.84-10.78 10.8-10.78 5.95 0 10.78 4.83 10.78 10.78z" stroke="#000" stroke-width="3" fill="#fff"/><path d="M273.3 604.45h23.67l.02.02h23.67M273.33 604.45h-1.54M320.63 604.47h1.54" stroke="#000" stroke-width="3" fill="none"/><path d="M225.16 611.94v-1.5l.08-.93.22-.9.36-.87.5-.8.6-.72.72-.6.8-.5.87-.35.93-.22.93-.08h3.92m5.2 0h7.84m5.22 0h7.82m5.22 0h3.9" stroke="#bbbec2" stroke-width="3" fill="none"/><path d="M226.66 613.64l-1.5-.2-1.5.2v-1.74h3z" stroke="#bbbec2" stroke-width=".05" fill="#bbbec2"/><path d="M270.25 604.45h1.54" stroke="#bbbec2" stroke-width="3" fill="none"/><path d="M273.3 647.6H309.8M273.33 647.6h-1.54" stroke="#000" stroke-width="3" fill="none"/><path d="M311.3 647.55l.2 1.54h-1.72v-3h1.8z" stroke="#000" stroke-width=".05"/><path d="M225.2 639.53v2.06l.07.93.22.92.35.87.5.8.6.72.72.6.8.5.87.36.92.22.94.07h3.9m5.22 0h7.82m5.2 0h7.83m5.2 0h3.92" stroke="#bbbec2" stroke-width="3" fill="none"/><path d="M226.7 639.57h-3v-1.73l1.46.2 1.54-.2z" stroke="#bbbec2" stroke-width=".05" fill="#bbbec2"/><path d="M270.25 647.6h1.54" stroke="#bbbec2" stroke-width="3" fill="none"/><defs><path fill="#3a414a" d="M118-107v75H92v-75H18v-26h74v-75h26v75h74v26h-74" id="b"/><use transform="matrix(0.06172839506172834,0,0,0.06172839506172834,0,0)" xlink:href="#b" id="a"/></defs></g></svg>