<svg xmlns="http://www.w3.org/2000/svg" xmlns:xlink="http://www.w3.org/1999/xlink" xmlns:lucid="lucid" width="145" height="157"><g transform="translate(-389 -548)" lucid:page-tab-id="0_0"><path d="M520 572.42c0 5.96-4.83 10.78-10.8 10.78-5.94 0-10.77-4.82-10.77-10.78 0-5.96 4.83-10.78 10.78-10.78 5.97 0 10.8 4.82 10.8 10.78z" stroke="#000" stroke-width="3" fill="#fff"/><path d="M509.2 586.22v49.34" stroke="#000" stroke-width="3" fill="none"/><path d="M509.2 584.72l1.5-.2v1.74h-3v-1.74zM510.7 637.3l-1.44-.25-1.55.18v-1.7h3z" stroke="#000" stroke-width=".05"/><path d="M518.56 647.9c0 5.17-4.18 9.36-9.34 9.36-5.17 0-9.35-4.2-9.35-9.35 0-5.15 4.2-9.33 9.34-9.33 5.18 0 9.36 4.18 9.36 9.34zM520 680.27c0 5.95-4.83 10.78-10.8 10.78-5.94 0-10.77-4.83-10.77-10.78 0-5.96 4.83-10.8 10.78-10.8 5.97 0 10.8 4.84 10.8 10.8z" stroke="#000" stroke-width="3" fill="#fff"/><path d="M498.43 643.86a6 6 0 0 1 6-6H514a6 6 0 0 1 6 6v9.56a6 6 0 0 1-6 6h-9.57a6 6 0 0 1-6-6z" fill="none"/><use xlink:href="#a" transform="matrix(1,0,0,1,498.43059322635435,637.8554532779664) translate(4.518518518518524 17.777777777777764)"/><path d="M509.2 660.27v6.2" stroke="#000" stroke-width="3" fill="none"/><path d="M509.17 658.77l1.54-.18v1.7h-3v-1.78zM510.7 668.16l-1.5-.2-1.5.2v-1.73h3z" stroke="#000" stroke-width=".05"/><path d="M423 626.06c0 5.96-4.84 10.78-10.8 10.78-5.95 0-10.78-4.83-10.78-10.78 0-5.96 4.83-10.8 10.8-10.8 5.94 0 10.77 4.84 10.77 10.8z" stroke="#e81313" stroke-width="3" fill="#fff"/><path d="M459.3 606.27v5.96m0 7.93v6l-.02.03v.04l-.03.03-.02.03-.03.02-.03.02h-.04l-.03.02H459l-.04.03-.03.02h-.03l-.02.04-.02.03-.02.03V632.52m0 7.94v5.95M459.3 606.3v-1.53M458.83 646.37v1.54" stroke="#e81313" stroke-width="3" fill="none"/><path d="M470.02 626.02c0 5.96-4.83 10.8-10.8 10.8-5.94 0-10.77-4.84-10.77-10.8 0-5.95 4.83-10.78 10.78-10.78 5.96 0 10.8 4.83 10.8 10.78z" stroke="#e81313" stroke-width="3" fill="#fff"/><path d="M460.33 604.77h3.56m4.72 0h7.1m4.74 0h3.56v.02h3.56m4.74 0h7.1m4.74 0h3.55M460.37 604.77h-1.54M507.68 604.8h1.53M412.2 612.26v-1.5l.08-.92.22-.92.36-.87.5-.8.6-.72.72-.6.8-.5.87-.36.92-.22.94-.08h3.92m5.22 0h7.82m5.22 0h7.82m5.22 0h3.9" stroke="#e81313" stroke-width="3" fill="none"/><path d="M413.7 613.96l-1.5-.2-1.5.2v-1.74h3z" stroke="#e81313" stroke-width=".05" fill="#e81313"/><path d="M457.3 604.77h1.53M460.33 647.9h5.48m7.32 0h10.96m7.3 0h5.48M460.37 647.9h-1.54" stroke="#e81313" stroke-width="3" fill="none"/><path d="M498.36 647.87l.18 1.54h-1.72v-3h1.8z" stroke="#e81313" stroke-width=".05" fill="#e81313"/><path d="M412.24 639.85v2.06l.07.95.23.92.37.87.5.8.6.7.7.63.82.5.87.35.9.22.94.07h3.9m5.22 0h7.82m5.2 0h7.83m5.22 0h3.9" stroke="#e81313" stroke-width="3" fill="none"/><path d="M413.74 639.9h-3v-1.74l1.47.2 1.54-.2z" stroke="#e81313" stroke-width=".05" fill="#e81313"/><path d="M457.3 647.9h1.53" stroke="#e81313" stroke-width="3" fill="none"/><defs><path fill="#3a414a" d="M118-107v75H92v-75H18v-26h74v-75h26v75h74v26h-74" id="b"/><use transform="matrix(0.06172839506172834,0,0,0.06172839506172834,0,0)" xlink:href="#b" id="a"/></defs></g></svg>