<svg xmlns="http://www.w3.org/2000/svg" xmlns:xlink="http://www.w3.org/1999/xlink" xmlns:lucid="lucid" width="150" height="165"><g transform="translate(-187 -341)" lucid:page-tab-id="0_0"><path d="M318.58 370.8c0 5.94-4.83 10.77-10.8 10.77-5.94 0-10.77-4.83-10.77-10.78 0-5.97 4.84-10.8 10.8-10.8 5.95 0 10.78 4.83 10.78 10.8z" stroke="#000" stroke-width="3" fill="#fff"/><path d="M307.8 404.64v4.4m0 5.85v8.77m0 5.86v4.4M307.8 404.68v-1.54" stroke="#e81313" stroke-width="3" fill="none"/><path d="M309.3 435.67l-1.46-.25-1.55.18v-1.72h3z" stroke="#e81313" stroke-width=".05" fill="#e81313"/><path d="M317.14 446.28c0 5.16-4.2 9.34-9.35 9.34-5.17 0-9.35-4.18-9.35-9.34s4.18-9.35 9.34-9.35c5.15 0 9.34 4.2 9.34 9.35zM318.58 478.63c0 5.96-4.83 10.8-10.8 10.8-5.94 0-10.77-4.84-10.77-10.8 0-5.95 4.84-10.78 10.8-10.78 5.95 0 10.78 4.83 10.78 10.78z" stroke="#000" stroke-width="3" fill="#fff"/><path d="M297 442.22a6 6 0 0 1 6-6h9.58a6 6 0 0 1 6 6v9.57a6 6 0 0 1-6 6H303a6 6 0 0 1-6-6z" fill="none"/><use xlink:href="#a" transform="matrix(1,0,0,1,297.00895076170536,436.22070519735314) translate(4.518518518518524 17.777777777777764)"/><path d="M307.8 458.63v6.2" stroke="#000" stroke-width="3" fill="none"/><path d="M307.75 457.14l1.54-.18v1.7h-3v-1.78zM309.3 466.53l-1.5-.2-1.5.2v-1.73h3z" stroke="#000" stroke-width=".05"/><path d="M221.57 424.42c0 5.96-4.83 10.8-10.78 10.8-5.97 0-10.8-4.84-10.8-10.8 0-5.95 4.83-10.78 10.78-10.78 5.96 0 10.8 4.83 10.8 10.78z" stroke="#000" stroke-width="3" fill="#fff"/><path d="M257.87 404.64v19.84a.23.23 0 0 1-.23.23.23.23 0 0 0-.23.24v19.84M257.87 404.68v-1.54M257.4 444.74v1.54" stroke="#000" stroke-width="3" fill="none"/><path d="M268.6 424.4c0 5.94-4.83 10.77-10.8 10.77-5.95 0-10.77-4.83-10.77-10.78 0-5.97 4.82-10.8 10.78-10.8 5.97 0 10.8 4.83 10.8 10.8z" stroke="#000" stroke-width="3" fill="#fff"/><path d="M258.9 403.14h47.68M258.95 403.14h-1.54M306.54 403.14h1.53M210.78 410.63v-1.5a6 6 0 0 1 6-6h39.13" stroke="#000" stroke-width="3" fill="none"/><path d="M212.28 412.32l-1.5-.2-1.5.2v-1.73h3z" stroke="#000" stroke-width=".05"/><path d="M255.87 403.14h1.54M258.9 446.28h36.54M258.95 446.28h-1.54" stroke="#000" stroke-width="3" fill="none"/><path d="M296.94 446.24l.17 1.54h-1.7v-3h1.8z" stroke="#000" stroke-width=".05"/><path d="M210.82 438.22v2.06a6 6 0 0 0 6 6h39.1" stroke="#000" stroke-width="3" fill="none"/><path d="M212.32 438.25h-3v-1.72l1.47.2 1.52-.2z" stroke="#000" stroke-width=".05"/><path d="M255.87 446.28h1.54M307.8 384.58v17.06" stroke="#000" stroke-width="3" fill="none"/><path d="M307.8 383.08l1.5-.2v1.74h-3v-1.73z" stroke="#000" stroke-width=".05"/><path d="M307.8 401.6v1.54" stroke="#000" stroke-width="3" fill="none"/><defs><path fill="#3a414a" d="M118-107v75H92v-75H18v-26h74v-75h26v75h74v26h-74" id="b"/><use transform="matrix(0.06172839506172834,0,0,0.06172839506172834,0,0)" xlink:href="#b" id="a"/></defs></g></svg>