<svg xmlns="http://www.w3.org/2000/svg" xmlns:xlink="http://www.w3.org/1999/xlink" xmlns:lucid="lucid" width="143" height="159"><g transform="translate(-189 -345)" lucid:page-tab-id="0_0"><path d="M318.58 370.8c0 5.94-4.83 10.77-10.8 10.77-5.94 0-10.77-4.83-10.77-10.78 0-5.97 4.84-10.8 10.8-10.8 5.95 0 10.78 4.83 10.78 10.8zM318.58 478.63c0 5.96-4.83 10.8-10.8 10.8-5.94 0-10.77-4.84-10.77-10.8 0-5.95 4.84-10.78 10.8-10.78 5.95 0 10.78 4.83 10.78 10.78zM221.57 424.42c0 5.96-4.83 10.8-10.78 10.8-5.97 0-10.8-4.84-10.8-10.8 0-5.95 4.83-10.78 10.78-10.78 5.96 0 10.8 4.83 10.8 10.78z" stroke="#000" stroke-width="3" fill="#fff"/><path d="M257.87 404.64v19.84a.23.23 0 0 1-.23.23.23.23 0 0 0-.23.24v19.84M257.87 404.68v-1.54M257.4 444.74v1.54" stroke="#000" stroke-width="3" fill="none"/><path d="M268.6 424.4c0 5.94-4.83 10.77-10.8 10.77-5.95 0-10.77-4.83-10.77-10.78 0-5.97 4.82-10.8 10.78-10.8 5.97 0 10.8 4.83 10.8 10.8z" stroke="#000" stroke-width="3" fill="#fff"/><path d="M210.78 410.63v-1.5a6 6 0 0 1 6-6h39.13" stroke="#000" stroke-width="3" fill="none"/><path d="M212.28 412.32l-1.5-.2-1.5.2v-1.73h3z" stroke="#000" stroke-width=".05"/><path d="M255.87 403.14h1.54M258.9 446.28h36.54M258.95 446.28h-1.54" stroke="#000" stroke-width="3" fill="none"/><path d="M296.94 446.24l.17 1.54h-1.7v-3h1.8z" stroke="#000" stroke-width=".05"/><path d="M210.82 438.22v2.06a6 6 0 0 0 6 6h39.1" stroke="#000" stroke-width="3" fill="none"/><path d="M212.32 438.25h-3v-1.72l1.47.2 1.52-.2z" stroke="#000" stroke-width=".05"/><path d="M255.87 446.28h1.54" stroke="#000" stroke-width="3" fill="none"/><path d="M307.8 455.77a.75.75 0 0 1 .74.75v10.93a.75.75 0 0 1-.75.75.75.75 0 0 1-.76-.75v-10.93a.75.75 0 0 1 .75-.75z" stroke="#000" stroke-width="1.5" fill="none"/><path d="M258.9 403.14h47.68M258.95 403.14h-1.54M306.54 403.14h1.53" stroke="#000" stroke-width="3" fill="none"/><path d="M307.8 381.83a.75.75 0 0 1 .74.75v20.96a.75.75 0 0 1-.75.75.75.75 0 0 1-.76-.76v-20.96a.75.75 0 0 1 .75-.75z" stroke="#000" stroke-width="1.5" fill="none"/><g fill="none"><path d="M307.8 403.3a.75.75 0 0 1 .74.74v31.56a.75.75 0 0 1-.75.75.75.75 0 0 1-.76-.75v-31.56a.75.75 0 0 1 .75-.75z"/><path d="M308.54 415.1v9.45m0 6.32V435.72l-.03.1-.04.12-.06.1-.08.1-.1.07-.1.07-.1.04-.1.04h-.25l-.12-.03-.1-.03-.1-.06-.1-.07-.07-.1-.07-.1-.05-.1-.03-.1v-4.86m0-6.32v-9.46m0-6.33V403.92l.03-.1.05-.12.06-.1.06-.1.1-.07.1-.06.1-.04.12-.03h.23l.13.03.1.04.1.06.1.08.07.1.06.1.05.1.03.12V408.77" stroke="#bbbec2" stroke-width="1.5"/></g><path d="M317.14 446.28c0 5.16-4.2 9.34-9.35 9.34-5.17 0-9.35-4.18-9.35-9.34s4.18-9.35 9.34-9.35c5.15 0 9.34 4.2 9.34 9.35z" stroke="#000" stroke-width="3" fill="#fff"/><path d="M297 442.22a6 6 0 0 1 6-6h9.58a6 6 0 0 1 6 6v9.57a6 6 0 0 1-6 6H303a6 6 0 0 1-6-6z" fill="none"/><use xlink:href="#a" transform="matrix(1,0,0,1,297.00895076170536,436.22070519735314) translate(4.518518518518524 17.777777777777764)"/><defs><path fill="#3a414a" d="M118-107v75H92v-75H18v-26h74v-75h26v75h74v26h-74" id="b"/><use transform="matrix(0.06172839506172834,0,0,0.06172839506172834,0,0)" xlink:href="#b" id="a"/></defs></g></svg>