<svg xmlns="http://www.w3.org/2000/svg" xmlns:xlink="http://www.w3.org/1999/xlink" xmlns:lucid="lucid" width="548" height="348"><g transform="translate(-640 -387)" lucid:page-tab-id="0_0"><path d="M652.67 400h522v320h-522z" stroke="salmon" stroke-width="3" fill="#ffdee4"/><path d="M1052.78 450.54c0 11.96-9.7 21.65-21.66 21.65s-21.65-9.7-21.65-21.66c0-11.97 9.7-21.66 21.65-21.66 11.96 0 21.66 9.7 21.66 21.66z" stroke="#000" stroke-width="4" fill="#fff"/><path d="M1031.12 476.2v107.48" stroke="#000" stroke-width="4" fill="none"/><path d="M1031.1 474.2l2.02-.2v2.25h-4v-2.27zM1033.12 585.95l-2-.27-2 .27v-2.32h4z" stroke="#000" stroke-width=".05"/><path d="M1045.56 602.14c0 7.97-6.46 14.44-14.44 14.44-7.97 0-14.43-6.47-14.43-14.44-.02-7.98 6.45-14.44 14.42-14.44 7.98 0 14.44 6.46 14.44 14.44zM1052.78 667.1c0 11.97-9.7 21.67-21.66 21.67s-21.65-9.7-21.65-21.66c0-11.95 9.7-21.65 21.65-21.65 11.96 0 21.66 9.7 21.66 21.66z" stroke="#000" stroke-width="4" fill="#fff"/><path d="M1016.68 593.7a6 6 0 0 1 6-6h16.88a6 6 0 0 1 6 6v16.88a6 6 0 0 1-6 6h-16.88a6 6 0 0 1-6-6z" fill="none"/><use xlink:href="#a" transform="matrix(1,0,0,1,1016.6846732194833,587.6997493822383) translate(5.425925925925931 24.88888888888888)"/><path d="M1031.12 620.6v20.85" stroke="#000" stroke-width="4" fill="none"/><path d="M1031.12 618.6l2-.27v2.3h-4v-2.3zM1033.12 643.67l-1.97-.23-2.03.2v-2.25h4z" stroke="#000" stroke-width=".05"/><path d="M1029.12 512.3H849.2a13 13 0 0 0-13 13v63.84a13 13 0 0 0 13 13h163.47M1029.07 512.3h2.05" stroke="#000" stroke-width="4" fill="none"/><path d="M1014.67 602.14l.26 2h-2.3v-4h2.3z" stroke="#000" stroke-width=".05"/><path d="M857.75 557.4c0 11.95-9.7 21.65-21.65 21.65-11.97 0-21.66-9.7-21.66-21.66 0-11.97 9.7-21.67 21.66-21.67s21.65 9.7 21.65 21.66z" stroke="#000" stroke-width="4" fill="#fff"/><path d="M726 537.73a6 6 0 0 1 6-6h60.2a6 6 0 0 1 6 6v31.32a6 6 0 0 1-6 6H732a6 6 0 0 1-6-6z" fill="none"/><use xlink:href="#b" transform="matrix(1,0,0,1,726.0000000000001,531.7331402807847) translate(22.444444444444464 17.77777777777777)"/><use xlink:href="#c" transform="matrix(1,0,0,1,726.0000000000001,531.7331402807847) translate(-47.92592592592587 44.44444444444443)"/><path d="M929.48 514.14v86M929.48 514.2v-2.06M929.48 600.1v2.04" stroke="#000" stroke-width="4" fill="none"/><path d="M951.6 557.4c0 11.95-9.7 21.65-21.65 21.65-11.97 0-21.66-9.7-21.66-21.66 0-11.97 9.7-21.67 21.65-21.67 11.96 0 21.65 9.7 21.65 21.66z" stroke="#000" stroke-width="4" fill="#fff"/><path d="M893.85 468.12a6 6 0 0 1 6-6h60.2a6 6 0 0 1 6 6v31.32a6 6 0 0 1-6 6h-60.2a6 6 0 0 1-6-6z" fill="none"/><use xlink:href="#d" transform="matrix(1,0,0,1,893.8498746911192,462.1209382461139) translate(-1.5246913580246684 35.111111111111114)"/><path d="M1069.33 442.5a6 6 0 0 1 6-6h45.76a6 6 0 0 1 6 6v16.88a6 6 0 0 1-6 6h-45.77a6 6 0 0 1-6-6z" fill="none"/><use xlink:href="#e" transform="matrix(1,0,0,1,1069.333333333333,436.5059721811727) translate(0 20.111111111111114)"/><path d="M1069.33 645.9a6 6 0 0 1 6-6h45.76a6 6 0 0 1 6 6v31.32a6 6 0 0 1-6 6h-45.77a6 6 0 0 1-6-6z" fill="none"/><use xlink:href="#f" transform="matrix(1,0,0,1,1069.333333333333,639.9018993278846) translate(0 35.111111111111114)"/><defs><path fill="#3a414a" d="M118-107v75H92v-75H18v-26h74v-75h26v75h74v26h-74" id="g"/><use transform="matrix(0.0864197530864197,0,0,0.0864197530864197,0,0)" xlink:href="#g" id="a"/><path fill="#3a414a" d="M100-194c62-1 85 37 85 99 1 63-27 99-86 99S16-35 15-95c0-66 28-99 85-99zM99-20c44 1 53-31 53-75 0-43-8-75-51-75s-53 32-53 75 10 74 51 75" id="h"/><path fill="#3a414a" d="M59-47c-2 24 18 29 38 22v24C64 9 27 4 27-40v-127H5v-23h24l9-43h21v43h35v23H59v120" id="i"/><path fill="#3a414a" d="M106-169C34-169 62-67 57 0H25v-261h32l-1 103c12-21 28-36 61-36 89 0 53 116 60 194h-32v-121c2-32-8-49-39-48" id="j"/><path fill="#3a414a" d="M100-194c63 0 86 42 84 106H49c0 40 14 67 53 68 26 1 43-12 49-29l28 8c-11 28-37 45-77 45C44 4 14-33 15-96c1-61 26-98 85-98zm52 81c6-60-76-77-97-28-3 7-6 17-6 28h103" id="k"/><path fill="#3a414a" d="M114-163C36-179 61-72 57 0H25l-1-190h30c1 12-1 29 2 39 6-27 23-49 58-41v29" id="l"/><g id="b"><use transform="matrix(0.06172839506172837,0,0,0.06172839506172837,0,0)" xlink:href="#h"/><use transform="matrix(0.06172839506172837,0,0,0.06172839506172837,12.345679012345673,0)" xlink:href="#i"/><use transform="matrix(0.06172839506172837,0,0,0.06172839506172837,18.518518518518512,0)" xlink:href="#j"/><use transform="matrix(0.06172839506172837,0,0,0.06172839506172837,30.864197530864185,0)" xlink:href="#k"/><use transform="matrix(0.06172839506172837,0,0,0.06172839506172837,43.20987654320986,0)" xlink:href="#l"/></g><path fill="#3a414a" d="M96-169c-40 0-48 33-48 73s9 75 48 75c24 0 41-14 43-38l32 2c-6 37-31 61-74 61-59 0-76-41-82-99-10-93 101-131 147-64 4 7 5 14 7 22l-32 3c-4-21-16-35-41-35" id="m"/><path fill="#3a414a" d="M210-169c-67 3-38 105-44 169h-31v-121c0-29-5-50-35-48C34-165 62-65 56 0H25l-1-190h30c1 10-1 24 2 32 10-44 99-50 107 0 11-21 27-35 58-36 85-2 47 119 55 194h-31v-121c0-29-5-49-35-48" id="n"/><path fill="#3a414a" d="M115-194c55 1 70 41 70 98S169 2 115 4C84 4 66-9 55-30l1 105H24l-1-265h31l2 30c10-21 28-34 59-34zm-8 174c40 0 45-34 45-75s-6-73-45-74c-42 0-51 32-51 76 0 43 10 73 51 73" id="o"/><path fill="#3a414a" d="M117-194c89-4 53 116 60 194h-32v-121c0-31-8-49-39-48C34-167 62-67 57 0H25l-1-190h30c1 10-1 24 2 32 11-22 29-35 61-36" id="p"/><path fill="#3a414a" d="M135-143c-3-34-86-38-87 0 15 53 115 12 119 90S17 21 10-45l28-5c4 36 97 45 98 0-10-56-113-15-118-90-4-57 82-63 122-42 12 7 21 19 24 35" id="q"/><g id="c"><use transform="matrix(0.06172839506172837,0,0,0.06172839506172837,0,0)" xlink:href="#m"/><use transform="matrix(0.06172839506172837,0,0,0.06172839506172837,11.111111111111107,0)" xlink:href="#h"/><use transform="matrix(0.06172839506172837,0,0,0.06172839506172837,23.45679012345678,0)" xlink:href="#n"/><use transform="matrix(0.06172839506172837,0,0,0.06172839506172837,41.91358024691357,0)" xlink:href="#o"/><use transform="matrix(0.06172839506172837,0,0,0.06172839506172837,54.25925925925924,0)" xlink:href="#h"/><use transform="matrix(0.06172839506172837,0,0,0.06172839506172837,66.60493827160491,0)" xlink:href="#p"/><use transform="matrix(0.06172839506172837,0,0,0.06172839506172837,78.95061728395058,0)" xlink:href="#k"/><use transform="matrix(0.06172839506172837,0,0,0.06172839506172837,91.29629629629625,0)" xlink:href="#p"/><use transform="matrix(0.06172839506172837,0,0,0.06172839506172837,103.64197530864192,0)" xlink:href="#i"/><use transform="matrix(0.06172839506172837,0,0,0.06172839506172837,109.81481481481475,0)" xlink:href="#q"/></g><path fill="#3a414a" d="M30 0v-248h33v221h125V0H30" id="r"/><path fill="#3a414a" d="M27 0v-27h64v-190l-56 39v-29l58-41h29v221h61V0H27" id="s"/><path fill="#3a414a" d="M197 0v-115H63V0H30v-248h33v105h134v-105h34V0h-34" id="t"/><path fill="#3a414a" d="M101-251c68 0 85 55 85 127S166 4 100 4C33 4 14-52 14-124c0-73 17-127 87-127zm-1 229c47 0 54-49 54-102s-4-102-53-102c-51 0-55 48-55 102 0 53 5 102 54 102" id="u"/><g id="d"><use transform="matrix(0.06172839506172837,0,0,0.06172839506172837,0,0)" xlink:href="#r"/><use transform="matrix(0.06172839506172837,0,0,0.06172839506172837,12.345679012345673,0)" xlink:href="#s"/><use transform="matrix(0.06172839506172837,0,0,0.06172839506172837,23.024691358024683,0)" xlink:href="#s"/><use transform="matrix(0.06172839506172837,0,0,0.06172839506172837,35.37037037037035,0)" xlink:href="#t"/><use transform="matrix(0.06172839506172837,0,0,0.06172839506172837,51.358024691358,0)" xlink:href="#s"/><use transform="matrix(0.06172839506172837,0,0,0.06172839506172837,63.70370370370367,0)" xlink:href="#u"/></g><path fill="#3a414a" d="M64 0c3-98 48-159 88-221H18v-27h164v26C143-157 98-101 97 0H64" id="v"/><g id="e"><use transform="matrix(0.06172839506172837,0,0,0.06172839506172837,0,0)" xlink:href="#r"/><use transform="matrix(0.06172839506172837,0,0,0.06172839506172837,12.345679012345673,0)" xlink:href="#s"/><use transform="matrix(0.06172839506172837,0,0,0.06172839506172837,24.691358024691347,0)" xlink:href="#u"/><use transform="matrix(0.06172839506172837,0,0,0.06172839506172837,37.037037037037024,0)" xlink:href="#t"/><use transform="matrix(0.06172839506172837,0,0,0.06172839506172837,53.02469135802467,0)" xlink:href="#v"/></g><path fill="#3a414a" d="M24 0v-261h32V0H24" id="w"/><path fill="#3a414a" d="M177-190C167-65 218 103 67 71c-23-6-38-20-44-43l32-5c15 47 100 32 89-28v-30C133-14 115 1 83 1 29 1 15-40 15-95c0-56 16-97 71-98 29-1 48 16 59 35 1-10 0-23 2-32h30zM94-22c36 0 50-32 50-73 0-42-14-75-50-75-39 0-46 34-46 75s6 73 46 73" id="x"/><path fill="#3a414a" d="M24-231v-30h32v30H24zM24 0v-190h32V0H24" id="y"/><g id="f"><use transform="matrix(0.06172839506172837,0,0,0.06172839506172837,0,0)" xlink:href="#w"/><use transform="matrix(0.06172839506172837,0,0,0.06172839506172837,4.876543209876541,0)" xlink:href="#h"/><use transform="matrix(0.06172839506172837,0,0,0.06172839506172837,17.222222222222214,0)" xlink:href="#x"/><use transform="matrix(0.06172839506172837,0,0,0.06172839506172837,29.567901234567888,0)" xlink:href="#y"/><use transform="matrix(0.06172839506172837,0,0,0.06172839506172837,34.44444444444443,0)" xlink:href="#i"/><use transform="matrix(0.06172839506172837,0,0,0.06172839506172837,40.617283950617264,0)" xlink:href="#q"/></g></defs></g></svg>