<svg xmlns="http://www.w3.org/2000/svg" xmlns:xlink="http://www.w3.org/1999/xlink" xmlns:lucid="lucid" width="460" height="203"><g transform="translate(-449 -823)" lucid:page-tab-id="0_0"><path d="M758.58 890.8c0 5.94-4.83 10.77-10.8 10.77-5.94 0-10.77-4.83-10.77-10.8 0-5.94 4.84-10.77 10.8-10.77 5.95 0 10.78 4.83 10.78 10.78zM757.14 966.28c0 5.16-4.2 9.34-9.35 9.34-5.17 0-9.35-4.18-9.35-9.34s4.18-9.35 9.34-9.35c5.15 0 9.34 4.2 9.34 9.35zM758.58 998.63c0 5.96-4.83 10.8-10.8 10.8-5.94 0-10.77-4.84-10.77-10.8 0-5.95 4.84-10.78 10.8-10.78 5.95 0 10.78 4.83 10.78 10.78z" stroke="#000" stroke-width="3" fill="#fff"/><path d="M737 962.22a6 6 0 0 1 6-6h9.58a6 6 0 0 1 6 6v9.57a6 6 0 0 1-6 6H743a6 6 0 0 1-6-6z" fill="none"/><use xlink:href="#a" transform="matrix(1,0,0,1,737.0089507617055,956.220705197353) translate(4.518518518518524 17.777777777777764)"/><path d="M661.57 944.42c0 5.96-4.83 10.8-10.8 10.8-5.94 0-10.77-4.84-10.77-10.8 0-5.95 4.83-10.78 10.78-10.78 5.96 0 10.8 4.83 10.8 10.78z" stroke="#000" stroke-width="3" fill="#fff"/><path d="M697.87 924.64v19.84a.23.23 0 0 1-.23.23.23.23 0 0 0-.23.24v19.84M697.87 924.68v-1.54M697.4 964.74v1.54" stroke="#000" stroke-width="3" fill="none"/><path d="M708.6 944.4c0 5.94-4.83 10.77-10.8 10.77-5.94 0-10.77-4.83-10.77-10.78 0-5.97 4.83-10.8 10.78-10.8 5.97 0 10.8 4.83 10.8 10.8z" stroke="#000" stroke-width="3" fill="#fff"/><path d="M698.9 923.14h47.4M698.95 923.14h-1.54M746.25 923.15h1.54M650.8 930.63v-1.5a6 6 0 0 1 6-6h39.1" stroke="#000" stroke-width="3" fill="none"/><path d="M652.3 932.32l-1.5-.2-1.5.2v-1.73h3z" stroke="#000" stroke-width=".05"/><path d="M695.87 923.14h1.54M698.9 966.28h36.54M698.95 966.28h-1.54" stroke="#000" stroke-width="3" fill="none"/><path d="M736.93 966.24l.18 1.54h-1.7v-3h1.8z" stroke="#000" stroke-width=".05"/><path d="M650.82 958.22v2.06a6 6 0 0 0 6 6h39.1" stroke="#000" stroke-width="3" fill="none"/><path d="M652.32 958.25h-3v-1.72l1.46.2 1.54-.2z" stroke="#000" stroke-width=".05"/><path d="M695.87 966.28h1.54" stroke="#000" stroke-width="3" fill="none"/><path d="M584.4 944.42h37.7M584.4 944.42h-.5" stroke="#000" fill="none"/><path d="M636.87 944.42l-14.27 4.64v-9.27z" stroke="#000"/><path d="M506.93 927.23a6 6 0 0 1 6-6h60.2a6 6 0 0 1 6 6v31.32a6 6 0 0 1-6 6h-60.2a6 6 0 0 1-6-6z" fill="none"/><use xlink:href="#b" transform="matrix(1,0,0,1,506.9305932263543,921.2302720707582) translate(22.444444444444464 17.77777777777777)"/><use xlink:href="#c" transform="matrix(1,0,0,1,506.9305932263543,921.2302720707582) translate(-47.92592592592587 44.44444444444443)"/><path d="M661.57 826a6 6 0 0 1 6-6h60.2a6 6 0 0 1 6 6v31.32a6 6 0 0 1-6 6h-60.2a6 6 0 0 1-6-6z" fill="none"/><use xlink:href="#d" transform="matrix(1,0,0,1,661.5694067736458,820) translate(-1.5246913580246684 35.111111111111114)"/><path d="M832.1 884a6 6 0 0 1 6-6h45.75a6 6 0 0 1 6 6v16.88a6 6 0 0 1-6 6H838.1a6 6 0 0 1-6-6z" fill="none"/><use xlink:href="#e" transform="matrix(1,0,0,1,832.0961056504304,878.0000000000001) translate(0 20.111111111111114)"/><path d="M831.43 976.1a6 6 0 0 1 6-6h45.75a6 6 0 0 1 6 6v31.32a6 6 0 0 1-6 6h-45.75a6 6 0 0 1-6-6z" fill="none"/><use xlink:href="#f" transform="matrix(1,0,0,1,831.4294389837637,970.1011138613575) translate(0 35.111111111111114)"/><path d="M697.4 863.82v42.93" stroke="#000" fill="none"/><path d="M697.9 863.83h-1v-.5h1z" stroke="#000" stroke-width=".05"/><path d="M697.4 921.52l-4.62-14.26h9.27z" stroke="#000"/><path d="M819.5 890.8h-43.02M819.5 890.8h.5" stroke="#000" fill="none"/><path d="M761.7 890.8l14.27-4.65v9.27z" stroke="#000"/><path d="M819.5 998.63h-43.02M819.5 998.63h.5" stroke="#000" fill="none"/><path d="M761.7 998.63l14.27-4.63v9.27z" stroke="#000"/><path d="M747.8 902.32a.75.75 0 0 1 .74.75v53.65a.75.75 0 0 1-.75.75.75.75 0 0 1-.76-.75v-53.65a.75.75 0 0 1 .75-.75zM747.8 976.12a.75.75 0 0 1 .74.75v10.94a.75.75 0 0 1-.75.76.75.75 0 0 1-.76-.75v-10.93a.75.75 0 0 1 .75-.75z" stroke="#000" stroke-width="1.5" fill="none"/><defs><path fill="#3a414a" d="M118-107v75H92v-75H18v-26h74v-75h26v75h74v26h-74" id="g"/><use transform="matrix(0.06172839506172834,0,0,0.06172839506172834,0,0)" xlink:href="#g" id="a"/><path fill="#3a414a" d="M100-194c62-1 85 37 85 99 1 63-27 99-86 99S16-35 15-95c0-66 28-99 85-99zM99-20c44 1 53-31 53-75 0-43-8-75-51-75s-53 32-53 75 10 74 51 75" id="h"/><path fill="#3a414a" d="M59-47c-2 24 18 29 38 22v24C64 9 27 4 27-40v-127H5v-23h24l9-43h21v43h35v23H59v120" id="i"/><path fill="#3a414a" d="M106-169C34-169 62-67 57 0H25v-261h32l-1 103c12-21 28-36 61-36 89 0 53 116 60 194h-32v-121c2-32-8-49-39-48" id="j"/><path fill="#3a414a" d="M100-194c63 0 86 42 84 106H49c0 40 14 67 53 68 26 1 43-12 49-29l28 8c-11 28-37 45-77 45C44 4 14-33 15-96c1-61 26-98 85-98zm52 81c6-60-76-77-97-28-3 7-6 17-6 28h103" id="k"/><path fill="#3a414a" d="M114-163C36-179 61-72 57 0H25l-1-190h30c1 12-1 29 2 39 6-27 23-49 58-41v29" id="l"/><g id="b"><use transform="matrix(0.06172839506172837,0,0,0.06172839506172837,0,0)" xlink:href="#h"/><use transform="matrix(0.06172839506172837,0,0,0.06172839506172837,12.345679012345673,0)" xlink:href="#i"/><use transform="matrix(0.06172839506172837,0,0,0.06172839506172837,18.518518518518512,0)" xlink:href="#j"/><use transform="matrix(0.06172839506172837,0,0,0.06172839506172837,30.864197530864185,0)" xlink:href="#k"/><use transform="matrix(0.06172839506172837,0,0,0.06172839506172837,43.20987654320986,0)" xlink:href="#l"/></g><path fill="#3a414a" d="M96-169c-40 0-48 33-48 73s9 75 48 75c24 0 41-14 43-38l32 2c-6 37-31 61-74 61-59 0-76-41-82-99-10-93 101-131 147-64 4 7 5 14 7 22l-32 3c-4-21-16-35-41-35" id="m"/><path fill="#3a414a" d="M210-169c-67 3-38 105-44 169h-31v-121c0-29-5-50-35-48C34-165 62-65 56 0H25l-1-190h30c1 10-1 24 2 32 10-44 99-50 107 0 11-21 27-35 58-36 85-2 47 119 55 194h-31v-121c0-29-5-49-35-48" id="n"/><path fill="#3a414a" d="M115-194c55 1 70 41 70 98S169 2 115 4C84 4 66-9 55-30l1 105H24l-1-265h31l2 30c10-21 28-34 59-34zm-8 174c40 0 45-34 45-75s-6-73-45-74c-42 0-51 32-51 76 0 43 10 73 51 73" id="o"/><path fill="#3a414a" d="M117-194c89-4 53 116 60 194h-32v-121c0-31-8-49-39-48C34-167 62-67 57 0H25l-1-190h30c1 10-1 24 2 32 11-22 29-35 61-36" id="p"/><path fill="#3a414a" d="M135-143c-3-34-86-38-87 0 15 53 115 12 119 90S17 21 10-45l28-5c4 36 97 45 98 0-10-56-113-15-118-90-4-57 82-63 122-42 12 7 21 19 24 35" id="q"/><g id="c"><use transform="matrix(0.06172839506172837,0,0,0.06172839506172837,0,0)" xlink:href="#m"/><use transform="matrix(0.06172839506172837,0,0,0.06172839506172837,11.111111111111107,0)" xlink:href="#h"/><use transform="matrix(0.06172839506172837,0,0,0.06172839506172837,23.45679012345678,0)" xlink:href="#n"/><use transform="matrix(0.06172839506172837,0,0,0.06172839506172837,41.91358024691357,0)" xlink:href="#o"/><use transform="matrix(0.06172839506172837,0,0,0.06172839506172837,54.25925925925924,0)" xlink:href="#h"/><use transform="matrix(0.06172839506172837,0,0,0.06172839506172837,66.60493827160491,0)" xlink:href="#p"/><use transform="matrix(0.06172839506172837,0,0,0.06172839506172837,78.95061728395058,0)" xlink:href="#k"/><use transform="matrix(0.06172839506172837,0,0,0.06172839506172837,91.29629629629625,0)" xlink:href="#p"/><use transform="matrix(0.06172839506172837,0,0,0.06172839506172837,103.64197530864192,0)" xlink:href="#i"/><use transform="matrix(0.06172839506172837,0,0,0.06172839506172837,109.81481481481475,0)" xlink:href="#q"/></g><path fill="#3a414a" d="M30 0v-248h33v221h125V0H30" id="r"/><path fill="#3a414a" d="M27 0v-27h64v-190l-56 39v-29l58-41h29v221h61V0H27" id="s"/><path fill="#3a414a" d="M197 0v-115H63V0H30v-248h33v105h134v-105h34V0h-34" id="t"/><path fill="#3a414a" d="M101-251c68 0 85 55 85 127S166 4 100 4C33 4 14-52 14-124c0-73 17-127 87-127zm-1 229c47 0 54-49 54-102s-4-102-53-102c-51 0-55 48-55 102 0 53 5 102 54 102" id="u"/><g id="d"><use transform="matrix(0.06172839506172837,0,0,0.06172839506172837,0,0)" xlink:href="#r"/><use transform="matrix(0.06172839506172837,0,0,0.06172839506172837,12.345679012345673,0)" xlink:href="#s"/><use transform="matrix(0.06172839506172837,0,0,0.06172839506172837,23.024691358024683,0)" xlink:href="#s"/><use transform="matrix(0.06172839506172837,0,0,0.06172839506172837,35.37037037037035,0)" xlink:href="#t"/><use transform="matrix(0.06172839506172837,0,0,0.06172839506172837,51.358024691358,0)" xlink:href="#s"/><use transform="matrix(0.06172839506172837,0,0,0.06172839506172837,63.70370370370367,0)" xlink:href="#u"/></g><path fill="#3a414a" d="M64 0c3-98 48-159 88-221H18v-27h164v26C143-157 98-101 97 0H64" id="v"/><g id="e"><use transform="matrix(0.06172839506172837,0,0,0.06172839506172837,0,0)" xlink:href="#r"/><use transform="matrix(0.06172839506172837,0,0,0.06172839506172837,12.345679012345673,0)" xlink:href="#s"/><use transform="matrix(0.06172839506172837,0,0,0.06172839506172837,24.691358024691347,0)" xlink:href="#u"/><use transform="matrix(0.06172839506172837,0,0,0.06172839506172837,37.037037037037024,0)" xlink:href="#t"/><use transform="matrix(0.06172839506172837,0,0,0.06172839506172837,53.02469135802467,0)" xlink:href="#v"/></g><path fill="#3a414a" d="M24 0v-261h32V0H24" id="w"/><path fill="#3a414a" d="M177-190C167-65 218 103 67 71c-23-6-38-20-44-43l32-5c15 47 100 32 89-28v-30C133-14 115 1 83 1 29 1 15-40 15-95c0-56 16-97 71-98 29-1 48 16 59 35 1-10 0-23 2-32h30zM94-22c36 0 50-32 50-73 0-42-14-75-50-75-39 0-46 34-46 75s6 73 46 73" id="x"/><path fill="#3a414a" d="M24-231v-30h32v30H24zM24 0v-190h32V0H24" id="y"/><g id="f"><use transform="matrix(0.06172839506172837,0,0,0.06172839506172837,0,0)" xlink:href="#w"/><use transform="matrix(0.06172839506172837,0,0,0.06172839506172837,4.876543209876541,0)" xlink:href="#h"/><use transform="matrix(0.06172839506172837,0,0,0.06172839506172837,17.222222222222214,0)" xlink:href="#x"/><use transform="matrix(0.06172839506172837,0,0,0.06172839506172837,29.567901234567888,0)" xlink:href="#y"/><use transform="matrix(0.06172839506172837,0,0,0.06172839506172837,34.44444444444443,0)" xlink:href="#i"/><use transform="matrix(0.06172839506172837,0,0,0.06172839506172837,40.617283950617264,0)" xlink:href="#q"/></g></defs></g></svg>